name Walk3.mot
datacolumns 19
datarows 12
range 2.65500000 2.71000000
endheader

                time	   L_ground_force_vx	   L_ground_force_vy	   L_ground_force_vz	   L_ground_force_px	   L_ground_force_py	   L_ground_force_pz	   R_ground_force_vx	   R_ground_force_vy	   R_ground_force_vz	   R_ground_force_px	   R_ground_force_py	   R_ground_force_pz	   L_ground_torque_x	   L_ground_torque_y	   L_ground_torque_z	   R_ground_torque_x	   R_ground_torque_y	   R_ground_torque_z	
          2.65500000	          0.13168180	          0.74963505	         -1.52362473	          0.21602759	          0.00000000	          0.06939606	         -0.10049381	        -19.05945540	          0.00924164	         -0.14369230	          0.00000000	          0.22653231	          0.00000000	         -0.04769093	          0.00000000	          0.00000000	          0.00190605	          0.00000000	
          2.66000000	         -2.52901145	         -5.38761592	         -1.03034235	          0.15884387	          0.00000000	          0.05064566	         -0.09991656	        -19.10891676	          0.00692758	         -0.14363043	          0.00000000	          0.22584875	          0.00000000	         -0.01927810	          0.00000000	          0.00000000	          0.00276526	          0.00000000	
          2.66500000	         -4.03524826	         -8.89722080	         -0.63252229	          0.10961042	          0.00000000	          0.03461592	         -0.09971276	        -19.16298005	          0.00426547	         -0.14359742	          0.00000000	          0.22513619	          0.00000000	          0.00046717	          0.00000000	          0.00000000	          0.00362837	          0.00000000	
          2.67000000	         -4.68202941	        -10.44419983	         -0.32738313	          0.06936911	          0.00000000	          0.02159866	         -0.10065116	        -19.25147198	          0.00014242	         -0.14360678	          0.00000000	          0.22435825	          0.00000000	          0.01309247	          0.00000000	          0.00000000	          0.00448537	          0.00000000	
          2.67500000	         -4.72650571	        -10.61023760	         -0.10581125	          0.03807688	          0.00000000	          0.01154276	         -0.10314601	        -19.40353517	         -0.00648875	         -0.14365564	          0.00000000	          0.22346691	          0.00000000	          0.02015338	          0.00000000	          0.00000000	          0.00520977	          0.00000000	
          2.68000000	         -4.38121805	         -9.87757290	          0.04464690	          0.01499835	          0.00000000	          0.00418120	         -0.10712822	        -19.63003559	         -0.01619877	         -0.14373454	          0.00000000	          0.22243126	          0.00000000	          0.02308752	          0.00000000	          0.00000000	          0.00558689	          0.00000000	
          2.68500000	         -3.81329039	         -8.62653263	          0.13760176	         -0.00098764	          0.00000000	         -0.00087030	         -0.11189236	        -19.90258264	         -0.02806053	         -0.14383515	          0.00000000	          0.22130930	          0.00000000	          0.02314318	          0.00000000	          0.00000000	          0.00547807	          0.00000000	
          2.69000000	         -3.14750422	         -7.14201032	          0.18632928	         -0.01116104	          0.00000000	         -0.00404090	         -0.11654479	        -20.16484077	         -0.03969274	         -0.14395130	          0.00000000	          0.22024889	          0.00000000	          0.02134853	          0.00000000	          0.00000000	          0.00503749	          0.00000000	
          2.69500000	         -2.47161892	         -5.62516826	          0.20284090	         -0.01680235	          0.00000000	         -0.00575456	         -0.12049675	        -20.37365943	         -0.04919494	         -0.14407836	          0.00000000	          0.21936379	          0.00000000	          0.01850924	          0.00000000	          0.00000000	          0.00445992	          0.00000000	
          2.70000000	         -1.84271160	         -4.20756404	          0.19738722	         -0.01909114	          0.00000000	         -0.00639838	         -0.12347938	        -20.50489702	         -0.05545708	         -0.14421190	          0.00000000	          0.21871660	          0.00000000	          0.01522461	          0.00000000	          0.00000000	          0.00389709	          0.00000000	
          2.70500000	         -1.29366931	         -2.96571447	          0.17827894	         -0.01904902	          0.00000000	         -0.00630521	         -0.12550013	        -20.55070604	         -0.05803153	         -0.14434637	          0.00000000	          0.21832875	          0.00000000	          0.01191415	          0.00000000	          0.00000000	          0.00346992	          0.00000000	
          2.71000000	         -0.83926553	         -1.93478824	          0.15192546	         -0.01751546	          0.00000000	         -0.00574680	         -0.12682316	        -20.51857650	         -0.05708167	         -0.14447384	          0.00000000	          0.21818632	          0.00000000	          0.00884895	          0.00000000	          0.00000000	          0.00327502	          0.00000000	
